HIERARCHY
ROOT Hips
{
	OFFSET 0.000000 0.000000 0.000000
	CHANNELS 6 Xposition Yposition Zposition Yrotation Xrotation Zrotation 
	JOINT LeftHip
	{
		OFFSET 0.088514 -0.001098 0.000122
		CHANNELS 3 Yrotation Xrotation Zrotation
		JOINT LeftKnee
		{
			OFFSET 0.000000 -0.377351 -0.000006
			CHANNELS 3 Yrotation Xrotation Zrotation
			JOINT LeftAnkle
			{
				OFFSET 0.000000 -0.409320 0.000162
				CHANNELS 3 Yrotation Xrotation Zrotation
				JOINT LeftToe
				{
					OFFSET 0.000000 -0.080722 0.175165
					CHANNELS 3 Yrotation Xrotation Zrotation
					End Site
					{
						OFFSET 0.000000 0.000000 0.000000
					}
				}
			}
		}
	}
	JOINT RightHip
	{
		OFFSET -0.088514 -0.001076 0.000120
		CHANNELS 3 Yrotation Xrotation Zrotation
		JOINT RightKnee
		{
			OFFSET 0.000000 -0.377351 -0.000006
			CHANNELS 3 Yrotation Xrotation Zrotation
			JOINT RightAnkle
			{
				OFFSET 0.000000 -0.409320 0.000162
				CHANNELS 3 Yrotation Xrotation Zrotation
				JOINT RightToe
				{
					OFFSET 0.000000 -0.080722 0.175165
					CHANNELS 3 Yrotation Xrotation Zrotation
					End Site
					{
						OFFSET 0.000000 0.000000 0.000000
					}
				}
			}
		}
	}
	JOINT Chest
	{
		OFFSET 0.000000 0.109830 -0.012203
		CHANNELS 3 Yrotation Xrotation Zrotation
		JOINT Chest3
		{
			OFFSET 0.000000 0.219648 -0.010220
			CHANNELS 3 Yrotation Xrotation Zrotation
			JOINT Chest4
			{
				OFFSET 0.000000 0.104914 0.000445
				CHANNELS 3 Yrotation Xrotation Zrotation
				JOINT Neck
				{
					OFFSET 0.000000 0.146306 0.000000
					CHANNELS 3 Yrotation Xrotation Zrotation
					JOINT Head
					{
						OFFSET 0.000000 0.086907 -0.000103
						CHANNELS 3 Yrotation Xrotation Zrotation
						End Site
						{
							OFFSET 0.000000 0.000000 0.000000
						}
					}
				}
				JOINT LeftCollar
				{
					OFFSET 0.030074 0.081747 0.000000
					CHANNELS 3 Yrotation Xrotation Zrotation
					JOINT LeftShoulder
					{
						OFFSET 0.131781 0.000000 0.000000
						CHANNELS 3 Yrotation Xrotation Zrotation
						JOINT LeftElbow
						{
							OFFSET 0.252146 0.000000 0.000000
							CHANNELS 3 Yrotation Xrotation Zrotation
							JOINT LeftWrist
							{
								OFFSET 0.244457 0.000000 0.000079
								CHANNELS 3 Yrotation Xrotation Zrotation
								End Site
								{
									OFFSET 0.000000 0.000000 0.000000
								}
							}
						}
					}
				}
				JOINT RightCollar
				{
					OFFSET -0.030074 0.081747 0.000000
					CHANNELS 3 Yrotation Xrotation Zrotation
					JOINT RightShoulder
					{
						OFFSET -0.131781 0.000000 0.000000
						CHANNELS 3 Yrotation Xrotation Zrotation
						JOINT RightElbow
						{
							OFFSET -0.252146 0.000000 0.000000
							CHANNELS 3 Yrotation Xrotation Zrotation
							JOINT RightWrist
							{
								OFFSET -0.244457 0.000000 0.000079
								CHANNELS 3 Yrotation Xrotation Zrotation
								End Site
								{
									OFFSET 0.000000 0.000000 0.000000
								}
							}
						}
					}
				}
			}
		}
	}
}
MOTION
Frames: 7
Frame Time: 0.016667
0.000000 0.000000 0.000000 -24.717960 -1.650848 3.798051 13.509973 2.513097 6.905558 2.261236 18.615313 -1.246813 25.801808 -14.567473 -17.105756 0.000000 -0.000000 0.000000 12.369228 -20.675278 -6.586927 6.931139 26.554416 0.845000 -1.764519 -4.969582 8.411852 0.000000 -0.000000 0.000000 -5.981570 1.744470 0.021362 -5.319517 -4.281614 0.027979 -2.006081 6.409826 -0.176512 9.436104 14.125511 -1.348799 18.257806 -9.006570 -6.139829 1.085073 3.599924 -1.324569 -55.146811 -56.385530 -21.261029 -31.558911 -48.494588 10.661478 4.626518 4.751327 1.668314 -0.285808 6.670509 5.223290 2.306818 -18.681749 77.245347 88.846764 -22.118715 28.162285 -3.618612 -1.681861 -12.756528 
0.000000 0.000000 0.000000 -23.878272 -1.443809 3.706740 13.750690 0.017363 8.260294 3.219084 23.021664 -0.811460 27.655677 -15.093946 -17.917142 0.000000 -0.000000 0.000000 12.348598 -21.825341 -6.843516 6.691105 28.200731 1.099551 -2.334560 -5.824463 9.393411 0.000000 -0.000000 0.000000 -6.252464 1.480632 -0.362752 -5.525071 -4.513979 -0.315378 -2.095618 6.326215 -0.315833 9.155893 14.044963 -1.098422 17.648828 -9.234952 -5.582676 0.983303 3.872697 -1.203112 -56.332723 -56.209309 -20.432747 -31.534562 -48.392264 10.223234 4.886415 5.061539 2.427972 -0.198446 6.786861 5.280045 1.829100 -18.594686 77.529930 88.789261 -22.379498 28.386238 -3.448506 -1.803806 -12.885315 
0.000000 0.000000 0.000000 -22.926888 -1.319303 3.508642 14.410717 -2.587128 9.718891 3.603313 26.898051 -0.036535 29.282623 -15.001630 -17.030649 0.000000 -0.000000 0.000000 12.563759 -23.049424 -7.192434 6.155762 30.102383 1.485317 -2.747205 -6.853238 10.309423 0.000000 -0.000000 0.000000 -6.558568 1.305547 -0.772200 -5.759764 -4.666873 -0.681042 -2.197253 6.272899 -0.463840 8.835096 13.847907 -0.846167 16.975155 -9.680030 -5.022934 0.682967 3.797335 -1.268088 -57.501381 -55.835008 -19.350019 -31.200760 -48.212423 9.510721 5.111616 5.231469 2.832971 -0.293194 6.621926 5.306892 1.915668 -18.426072 77.518829 88.752673 -22.907345 28.254076 -3.200607 -1.949802 -12.921818 
0.000000 0.000000 0.000000 -21.896093 -1.241131 3.217024 15.183007 -5.309600 11.273646 3.727398 30.465646 1.010872 30.754365 -14.661856 -15.200333 0.000000 -0.000000 0.000000 12.866170 -24.338705 -7.575747 5.472533 32.188047 1.950962 -3.053429 -8.024913 11.188067 0.000000 -0.000000 0.000000 -6.882573 1.182021 -1.197031 -6.008817 -4.773369 -1.060483 -2.304928 6.237444 -0.617175 8.476706 13.590377 -0.594361 16.234635 -10.236779 -4.453430 0.278528 3.547762 -1.442552 -58.693537 -55.398483 -18.163783 -30.701879 -47.957687 8.650360 5.326028 5.323272 3.126791 -0.485979 6.301531 5.304792 2.252501 -18.221370 77.361016 88.716871 -23.611290 27.964633 -2.906618 -2.112795 -12.921551 
0.000000 0.000000 0.000000 -20.941007 -1.162089 2.869411 15.621449 -7.746000 12.909741 3.681023 33.191135 1.922012 31.417993 -14.138114 -13.648723 0.000000 -0.000000 0.000000 12.826052 -25.632392 -7.816671 4.968574 34.183893 2.389871 -3.186378 -9.107699 11.929896 0.000000 -0.000000 0.000000 -7.167026 1.053319 -1.605081 -6.224335 -4.884146 -1.425354 -2.399581 6.200490 -0.763974 8.135937 13.360842 -0.370359 15.530977 -10.731310 -3.933423 -0.065832 3.398282 -1.626737 -59.916538 -55.146627 -17.199092 -30.331972 -47.610488 7.974203 5.562034 5.360334 3.696471 -0.639888 6.016770 5.276873 2.452413 -18.070944 77.226635 88.626647 -24.356823 27.779061 -2.652496 -2.270890 -12.966871 
0.000000 0.000000 0.000000 -20.143249 -1.067585 2.453566 15.604232 -9.715995 14.745650 3.236031 34.816467 2.385180 30.632679 -13.380164 -12.971578 0.000000 -0.000000 0.000000 12.080948 -26.911571 -7.749282 4.817156 35.962924 2.770927 -2.990640 -10.063978 12.475646 0.000000 -0.000000 0.000000 -7.381236 0.896400 -1.979582 -6.380675 -5.019993 -1.760751 -2.471055 6.153925 -0.897866 7.833248 13.181838 -0.194410 14.909398 -11.118410 -3.508492 -0.274650 3.470206 -1.794993 -61.205869 -55.221515 -16.584910 -30.245737 -47.132656 7.636672 5.786812 5.298364 4.818099 -0.702885 5.832838 5.208570 2.312110 -18.008116 77.168063 88.412050 -25.134741 27.872640 -2.479688 -2.421342 -13.103524 
0.000000 0.000000 0.000000 -19.421547 -0.971486 1.981452 15.263849 -11.364331 16.741956 2.548018 35.629740 2.502326 29.012201 -12.385049 -12.613772 0.000000 -0.000000 0.000000 10.954522 -28.194119 -7.484800 4.838909 37.655180 3.110235 -2.614736 -10.929630 12.876317 0.000000 -0.000000 0.000000 -7.556144 0.732328 -2.337806 -6.503609 -5.162135 -2.081870 -2.529579 6.104908 -1.025259 7.550363 13.028254 -0.047351 14.331504 -11.450134 -3.139855 -0.415110 3.637388 -1.972316 -62.536133 -55.485845 -16.179116 -30.277348 -46.559766 7.465838 6.001576 5.187802 6.216415 -0.722357 5.680933 5.115169 2.032637 -17.987043 77.125314 88.140526 -25.956680 28.075598 -2.348250 -2.567741 -13.283541 
